<?xml version="1.0" ?><svg height="60px" version="1.1" viewBox="0 0 60 60" width="60px" xmlns="http://www.w3.org/2000/svg" xmlns:sketch="http://www.bohemiancoding.com/sketch/ns" xmlns:xlink="http://www.w3.org/1999/xlink"><title/><desc/><defs/><g fill="none" fill-rule="evenodd" id="black" stroke="none" stroke-width="1"><g id="slice" transform="translate(-400.000000, -500.000000)"/><g fill="#000000" id="dribbble" transform="translate(11.000000, 11.000000)"><path d="M1.5529759,17.6281882 C1.5178768,18.0808472 1.5,18.5383359 1.5,19 C1.5,23.7635863 3.4032933,28.0826343 6.4909025,31.2381665 C8.824488,27.7265807 11.3691256,24.9333802 14.0945638,22.8076292 C16.4492219,20.9710744 18.8845848,19.6644899 21.36323,18.8265161 C20.9733871,17.9119488 20.5709959,17.0059092 20.1566928,16.1086516 C19.9831059,15.7327137 19.808387,15.3603639 19.6326408,14.9916438 C14.8531535,16.4581864 8.8733395,17.3800522 1.5529759,17.6281882 L1.5529759,17.6281882 Z M1.7419981,16.0831189 C2.7686505,9.9641162 6.9707386,4.9218951 12.595843,2.7088748 C13.0916876,3.4224418 13.6297916,4.2308809 14.2012315,5.1306585 C15.8066875,7.6585771 17.4129071,10.4881973 18.952454,13.5926951 C14.4074641,14.9591433 8.7153731,15.831581 1.7419981,16.0831189 L1.7419981,16.0831189 Z M14.1077471,2.1930085 C15.6602964,1.7418591 17.3019036,1.5 19,1.5 C23.5820526,1.5 27.7528028,3.2609937 30.8723782,6.1431087 C30.7605386,6.3238406 30.6331201,6.5129201 30.4890027,6.709367 C29.5539686,7.983915 28.1442965,9.2716727 26.1583841,10.4853706 C24.5354024,11.477262 22.6327371,12.3600565 20.4322867,13.1166365 C18.8368782,9.8808495 17.1684046,6.9347746 15.4991334,4.3063739 C15.0103158,3.5366917 14.5447681,2.8315555 14.1077471,2.1930085 L14.1077471,2.1930085 Z M31.9801561,7.2624391 C34.7891372,10.3668693 36.5,14.4836379 36.5,19 C36.5,19.0110996 36.4999897,19.0221967 36.499969,19.0332914 C36.2655019,18.9476743 36.0173847,18.8622527 35.7561415,18.7780017 C34.1344441,18.2550041 32.3298539,17.8770749 30.3861558,17.7264236 C27.8615497,17.5307477 25.3354352,17.7289716 22.8450557,18.3821616 C22.4282373,17.3996859 21.9971643,16.4269015 21.5525974,15.4641015 C21.4044559,15.1432709 21.2554978,14.825004 21.1057853,14.5093246 C23.3404028,13.7294989 25.286245,12.8203161 26.9601692,11.7972909 C29.1155449,10.480025 30.6743458,9.0560357 31.7287039,7.6188368 C31.8183186,7.4966828 31.9020516,7.3778018 31.9801561,7.2624391 L31.9801561,7.2624391 Z M36.4232861,20.6494361 C35.891779,26.3349351 32.6403824,31.2303395 27.9833299,34.0214157 C26.824839,29.1049666 25.2862728,24.3607693 23.4407842,19.8170013 C25.6966801,19.2500072 27.9813025,19.0821695 30.2673421,19.2593548 C32.0844059,19.4001909 33.7719517,19.7536079 35.2842226,20.2413155 C35.7032171,20.3764412 36.0838683,20.5141467 36.4232861,20.6494361 L36.4232861,20.6494361 Z M26.5808386,34.777265 C24.2872141,35.8813419 21.7158548,36.5 19,36.5 C14.6596179,36.5 10.6882959,34.9198673 7.6299063,32.3034742 C9.913337,28.824647 12.3941193,26.0838234 15.0401677,24.0199938 C17.2863294,22.2680624 19.6024235,21.0321616 21.9568219,20.2495961 C23.8504703,24.8907596 25.4187529,29.744082 26.5808386,34.777265 L26.5808386,34.777265 Z M38,19 C38,8.5065893 29.4934108,7.10542736e-15 19,7.10542736e-15 C8.5065892,7.10542736e-15 -7.10542736e-15,8.5065893 -7.10542736e-15,19 C-7.10542736e-15,29.4934108 8.5065892,38 19,38 C29.4934108,38 38,29.4934108 38,19 L38,19 Z"/></g></g></svg>