<?xml version="1.0" ?><svg data-name="Social Media Icons" id="Social_Media_Icons" viewBox="0 0 512 512" xmlns="http://www.w3.org/2000/svg"><defs><style>.cls-1{fill:#411c1d;}.cls-2{fill:#fff200;}</style></defs><g data-name="Kakao Talk" id="Kakao_Talk"><path class="cls-1" d="M512,224.31c0,112-114.6,202.75-256,202.75a321.35,321.35,0,0,1-41.63-2.69,9.05,9.05,0,0,0-6.16,1.41l-96,63.14a9.07,9.07,0,0,1-13.81-9.66l18.23-77.14a9,9,0,0,0-4.46-10C44.49,355.6,0,294.06,0,224.31c0-112,114.62-202.75,256-202.75S512,112.33,512,224.31Z"/><path class="cls-2" d="M163.9,174.58A13.6,13.6,0,0,0,150.3,161H81.24a13.6,13.6,0,1,0,0,27.2h20.93v87.49a13.6,13.6,0,0,0,27.2,0V188.18H150.3A13.6,13.6,0,0,0,163.9,174.58Z"/><path class="cls-2" d="M324.89,262.36H297.31V174.58a13.6,13.6,0,0,0-27.2,0V276a13.6,13.6,0,0,0,13.6,13.6h41.18a13.6,13.6,0,1,0,0-27.2Z"/><path class="cls-2" d="M362.56,161a13.6,13.6,0,0,0-13.6,13.6V275.67a13.6,13.6,0,0,0,27.2,0V174.58A13.6,13.6,0,0,0,362.56,161Z"/><path class="cls-2" d="M439.43,265.5,400.12,219l33-30.84a13.6,13.6,0,1,0-18.58-19.87l-38.34,35.86v37.22l4-3.77,38.45,45.45a13.6,13.6,0,1,0,20.77-17.57Z"/><path class="cls-2" d="M221.54,173.44c-6.14-15.53-28.11-15.57-34.31-.06L148,271.59a13.61,13.61,0,0,0,7.59,17.68h0a13.6,13.6,0,0,0,17.67-7.59L180,264.75h48.41l6.69,16.88a13.59,13.59,0,0,0,17.64,7.64h0a13.59,13.59,0,0,0,7.64-17.65Zm-30.66,64.11,13.45-33.67,13.33,33.67Z"/></g></svg>